<svg width="900" height="50" xmlns="http://www.w3.org/2000/svg"><path fill="#212529" d="M0 0h900v50H0z"/><path d="m0 21 13.7.2c13.6.1 41 .5 68.3.8 27.3.3 54.7.7 81.8 2 27.2 1.3 54.2 3.7 81.4 3.8 27.1.2 54.5-1.8 81.8-1.6 27.3.1 54.7 2.5 82 1.8 27.3-.7 54.7-4.3 82-5.8 27.3-1.5 54.7-.9 82 .6 27.3 1.5 54.7 3.9 81.8 3.5C682 26 709 23 736.2 23c27.1 0 54.5 3 81.8 4.7 27.3 1.6 54.7 2 68.3 2.1l13.7.2v21H0Z" fill="#767676"/><path d="m0 26 13.7 1.2c13.6 1.1 41 3.5 68.3 3.5 27.3 0 54.7-2.4 81.8-2.4 27.2 0 54.2 2.4 81.4 3.7 27.1 1.3 54.5 1.7 81.8 1.8 27.3.2 54.7.2 82-.5 27.3-.6 54.7-2 82-3.5 27.3-1.5 54.7-3.1 82-2.8 27.3.3 54.7 2.7 81.8 2.8 27.2.2 54.2-1.8 81.4-2.5 27.1-.6 54.5 0 81.8.9 27.3.8 54.7 1.8 68.3 2.3l13.7.5v20H0Z" fill="#8e9596"/><path d="m0 32 13.7 1c13.6 1 41 3 68.3 3.2 27.3.1 54.7-1.5 81.8-2.9C191 32 218 31 245.2 31.2c27.1.1 54.5 1.5 81.8 2 27.3.5 54.7.1 82-.5 27.3-.7 54.7-1.7 82-1.5 27.3.1 54.7 1.5 82 2.8 27.3 1.3 54.7 2.7 81.8 2.7 27.2 0 54.2-1.4 81.4-2.5 27.1-1.2 54.5-2.2 81.8-1.7 27.3.5 54.7 2.5 68.3 3.5l13.7 1v14H0Z" fill="#a6b5b8"/><path d="m0 36 13.7.8c13.6.9 41 2.5 68.3 3.5 27.3 1 54.7 1.4 81.8 1C191 41 218 40 245.2 39.5c27.1-.5 54.5-.5 81.8-.8 27.3-.4 54.7-1 82-1.4 27.3-.3 54.7-.3 82 .2 27.3.5 54.7 1.5 82 2 27.3.5 54.7.5 81.8.5 27.2 0 54.2 0 81.4.3 27.1.4 54.5 1 81.8.5 27.3-.5 54.7-2.1 68.3-3L900 37v14H0Z" fill="#bfd6db"/><path d="m0 45 13.7-.3c13.6-.4 41-1 68.3-1.2 27.3-.2 54.7.2 81.8.7 27.2.5 54.2 1.1 81.4 1 27.1-.2 54.5-1.2 81.8-1.5 27.3-.4 54.7 0 82 .3 27.3.3 54.7.7 82 .5 27.3-.2 54.7-.8 82-1.3 27.3-.5 54.7-.9 81.8-1 27.2-.2 54.2-.2 81.4 0 27.1.1 54.5.5 81.8 1 27.3.5 54.7 1.1 68.3 1.5l13.7.3v6H0Z" fill="#d8f9ff"/></svg>