<svg width="900" height="50" xmlns="http://www.w3.org/2000/svg"><path d="m0 4 90 1 90 1 90-2 90-1 90 2 90-1 90 1 90 1 90-3h90V0H0Z" fill="#fff"/><path d="m0 6 90 3h180l90 1 90 1 90-1 90-2h90l90 1 90 1V1h-90l-90 3-90-1-90-1-90 1-90-2-90 1-90 2-90-1L0 2Z" fill="#d5d7d7"/><path d="m0 14 90 4 90-3 90-1h90l90-1 90 2 90-2 90-2 90 4 90-1V8l-90-1-90-1h-90l-90 2-90 1-90-1-90-1H90L0 4Z" fill="#adb0b1"/><path d="m0 17 90 6 90-2 90-3 90-2 90 4 90-3 90 1 90-2 90 4h90v-8l-90 1-90-4-90 2-90 2-90-2-90 1h-90l-90 1-90 3-90-4Z" fill="#878a8c"/><path d="m0 27 90 5 90-7 90-2 90 5 90 1 90-3 90 4 90-6h90l90 2v-8h-90l-90-4-90 2-90-1-90 3-90-4-90 2-90 3-90 2-90-6Z" fill="#626669"/><path d="m0 34 90 2 90-5 90 10 90 3 90 3 90-5 90 5 90-1 90-5 90-4V24l-90-2h-90l-90 6-90-4-90 3-90-1-90-5-90 2-90 7-90-5Z" fill="#404448"/><path d="M0 51h900V35l-90 4-90 5-90 1-90-5-90 5-90-3-90-3-90-10-90 5-90-2Z" fill="#212529"/></svg>